<?xml version="1.0" encoding="utf-8"?>
<!-- Generator: Adobe Illustrator 22.0.0, SVG Export Plug-In . SVG Version: 6.00 Build 0)  -->
<svg version="1.1" xmlns="http://www.w3.org/2000/svg" xmlns:xlink="http://www.w3.org/1999/xlink" x="0px" y="0px"
	 viewBox="0 0 385 108" enable-background="new 0 0 385 108" xml:space="preserve">
<g id="Старт">
	<g>
		<g>
			<path d="M-248.757,85.767c-8.821,0-15.86-3.135-21.116-9.405s-7.884-14.691-7.884-25.266c0-10.358,2.604-18.565,7.814-24.621
				c5.21-6.055,12.271-9.083,21.186-9.083c6.608,0,12.403,2.106,17.382,6.317c4.979,4.211,7.762,9.359,8.346,15.445h-2.26
				c-0.615-5.502-3.181-10.143-7.699-13.924s-9.774-5.671-15.769-5.671c-8.176,0-14.669,2.836-19.479,8.507
				s-7.216,13.348-7.216,23.03c0,9.959,2.421,17.866,7.262,23.721c4.842,5.855,11.319,8.783,19.434,8.783
				c6.209,0,11.526-1.713,15.953-5.141c4.426-3.427,6.916-7.876,7.469-13.348h2.26c-0.523,6.056-3.197,11.012-8.022,14.869
				C-235.924,83.838-241.811,85.767-248.757,85.767z"/>
			<path d="M-194.444,84.845h-2.306V20.481h-23.975v-2.167h50.255v2.167h-23.975V84.845z"/>
			<path d="M-126.669,84.845l-8.713-23.099h-30.938l-8.76,23.099h-2.536l25.589-66.531h2.352l25.588,66.531H-126.669z
				 M-150.966,21.495l-14.523,38.13h29.277l-14.523-38.13H-150.966z"/>
			<path d="M-116.526,18.314h20.518c6.547,0,11.749,1.752,15.606,5.256c3.857,3.504,5.787,8.223,5.787,14.155
				c0,5.933-1.937,10.65-5.81,14.154s-9.068,5.256-15.584,5.256h-18.212v27.71h-2.306V18.314z M-114.22,20.481v34.487h18.073
				c5.902,0,10.582-1.545,14.04-4.634c3.457-3.089,5.187-7.292,5.187-12.61c0-5.348-1.729-9.559-5.187-12.633
				c-3.458-3.073-8.138-4.61-14.04-4.61H-114.22z"/>
			<path d="M-44.416,84.845h-2.306V20.481h-23.975v-2.167h50.255v2.167h-23.975V84.845z"/>
		</g>
	</g>
</g>
<g id="Рейтинг">
	<g>
		<path d="M6.23,18.016h20.689c6.602,0,11.847,1.767,15.737,5.3c3.89,3.533,5.835,8.292,5.835,14.273
			c0,5.982-1.953,10.74-5.858,14.273c-3.906,3.534-9.144,5.3-15.714,5.3H8.555v27.941H6.23V18.016z M8.555,20.201v34.776H26.78
			c5.951,0,10.67-1.557,14.157-4.672c3.487-3.115,5.23-7.353,5.23-12.715c0-5.393-1.744-9.639-5.23-12.739
			c-3.487-3.099-8.206-4.649-14.157-4.649H8.555z"/>
		<path d="M96.006,82.918v2.186H57.604V18.016h38.402v2.185H59.929v29.383h34.404v2.139H59.929v31.196H96.006z"/>
		<path d="M153.377,85.104V21.967h-0.232L108.42,85.104h-2.325V18.016h2.325v63.136h0.232l44.725-63.136h2.325v67.088H153.377z
			 M118.927,2.766h2.139c0,2.573,0.907,4.587,2.72,6.044c1.813,1.458,4.192,2.186,7.137,2.186c2.944,0,5.323-0.728,7.137-2.186
			c1.813-1.457,2.72-3.471,2.72-6.044h2.139c0,3.193-1.093,5.672-3.278,7.439s-5.091,2.65-8.717,2.65
			c-3.626,0-6.532-0.883-8.717-2.65S118.927,5.959,118.927,2.766z"/>
		<path d="M189.501,85.104h-2.325V20.201h-24.176v-2.185h50.676v2.185h-24.176V85.104z"/>
		<path d="M268.259,85.104V21.967h-0.234l-44.724,63.136h-2.325V18.016h2.325v63.136h0.232l44.726-63.136h2.324v67.088H268.259z"/>
		<path d="M331.766,85.104h-2.324V51.722h-44.074v33.381h-2.325V18.016h2.325v31.521h44.074V18.016h2.324V85.104z"/>
		<path d="M346.551,85.104h-2.325V18.016h37.892v2.185h-35.566V85.104z"/>
	</g>
</g>
<g id="Рейтинг__x28_копия_x29_">
	<g>
		<g>
			<path d="M457.844,85.047h-2.274V20.263h-43.529v64.784h-2.32V18.081h48.124V85.047z"/>
			<path d="M470.282,18.081h20.651c6.589,0,11.825,1.764,15.708,5.291c3.883,3.526,5.824,8.276,5.824,14.247
				s-1.949,10.72-5.847,14.246c-3.898,3.527-9.127,5.291-15.686,5.291h-18.331v27.891h-2.32V18.081z M472.602,20.263v34.712h18.191
				c5.94,0,10.65-1.555,14.131-4.664c3.48-3.108,5.221-7.339,5.221-12.691c0-5.384-1.74-9.622-5.221-12.716
				s-8.19-4.641-14.131-4.641H472.602z"/>
			<path d="M560.775,85.047l-8.771-23.25h-31.14l-8.817,23.25h-2.552l25.756-66.966h2.366l25.756,66.966H560.775z M536.319,21.283
				l-14.618,38.379h29.468L536.55,21.283H536.319z"/>
			<path d="M593.075,85.047h-22.09V18.081h21.486c5.816,0,10.534,1.493,14.154,4.479c3.619,2.986,5.43,6.892,5.43,11.718
				c0,4.115-1.215,7.604-3.644,10.465c-2.429,2.862-5.762,4.71-10,5.546v0.186c5.012,0.495,9.134,2.251,12.367,5.268
				c3.232,3.016,4.85,6.922,4.85,11.718c0,5.383-2.019,9.66-6.057,12.831C605.535,83.462,600.036,85.047,593.075,85.047z
				 M573.305,20.216v29.329h18.563c5.384,0,9.706-1.384,12.971-4.153c3.264-2.769,4.896-6.458,4.896-11.067
				c0-4.238-1.594-7.649-4.78-10.233c-3.187-2.583-7.41-3.875-12.669-3.875H573.305z M573.305,82.912h19.677
				c6.311,0,11.276-1.399,14.896-4.2c3.619-2.799,5.43-6.566,5.43-11.3c0-4.856-1.896-8.693-5.686-11.509s-8.995-4.224-15.615-4.224
				h-18.702V82.912z"/>
			<path d="M671.919,85.047V22.026h-0.231l-44.644,63.021h-2.32V18.081h2.32v63.021h0.231l44.644-63.021h2.32v66.966H671.919z"/>
			<path d="M732.62,85.047h-2.32V20.263h-31.51l-2.646,43.901c-0.186,3.125-0.503,5.878-0.951,8.26
				c-0.449,2.383-1.13,4.603-2.042,6.66c-0.913,2.058-2.15,3.636-3.713,4.733c-1.563,1.099-3.427,1.647-5.592,1.647
				c-0.434,0-0.858-0.031-1.276-0.093c-0.417-0.063-0.75-0.14-0.998-0.232l-0.324-0.093v-2.181c0.03,0.03,0.146,0.077,0.348,0.139
				c0.201,0.063,0.511,0.124,0.929,0.186c0.417,0.063,0.827,0.093,1.229,0.093c1.671,0,3.124-0.479,4.362-1.438
				c1.237-0.959,2.234-2.351,2.993-4.177c0.758-1.825,1.346-3.858,1.764-6.103c0.417-2.242,0.719-4.818,0.904-7.727l2.785-45.758
				h36.058V85.047z"/>
			<path d="M791.51,85.047l-8.771-23.25H751.6l-8.817,23.25h-2.552l25.756-66.966h2.366l25.756,66.966H791.51z M767.054,21.283
				l-14.618,38.379h29.468l-14.618-38.379H767.054z"/>
		</g>
	</g>
</g>
</svg>
